<svg width="36" height="36" viewBox="0 0 36 36" fill="none" xmlns="http://www.w3.org/2000/svg">
<path d="M30.4633 26.562C33.2938 23.49 33.0088 19.545 32.9998 19.5V7.5C32.9998 7.10218 32.8417 6.72064 32.5604 6.43934C32.2791 6.15804 31.8976 6 31.4998 6H22.4998C20.8453 6 19.4998 7.3455 19.4998 9V19.5C19.4998 19.8978 19.6578 20.2794 19.9391 20.5607C20.2204 20.842 20.6019 21 20.9998 21H25.6168C25.5851 21.7416 25.3635 22.4626 24.9733 23.094C24.2113 24.2955 22.7758 25.116 20.7043 25.53L19.4998 25.77V30H20.9998C25.1743 30 28.3588 28.8435 30.4633 26.562ZM13.9528 26.562C16.7848 23.49 16.4983 19.545 16.4893 19.5V7.5C16.4893 7.10218 16.3312 6.72064 16.0499 6.43934C15.7686 6.15804 15.3871 6 14.9893 6H5.98926C4.33476 6 2.98926 7.3455 2.98926 9V19.5C2.98926 19.8978 3.14729 20.2794 3.4286 20.5607C3.7099 20.842 4.09143 21 4.48926 21H9.10626C9.07457 21.7416 8.85299 22.4626 8.46276 23.094C7.70076 24.2955 6.26526 25.116 4.19376 25.53L2.98926 25.77V30H4.48926C8.66376 30 11.8483 28.8435 13.9528 26.562Z" fill="#44702B"/>
</svg>
