<svg width="41" height="41" viewBox="0 0 41 41" fill="none" xmlns="http://www.w3.org/2000/svg">
<path d="M37.0818 16.8554V26.9686M36.1041 18.4095C36.4059 18.2763 36.6619 18.0576 36.8406 17.7804C37.0193 17.5032 37.1127 17.1797 37.1093 16.8499C37.1059 16.5201 37.0058 16.1986 36.8214 15.9251C36.6371 15.6517 36.3765 15.4383 36.0721 15.3114L21.6254 8.73112C21.1862 8.53079 20.7091 8.42712 20.2264 8.42712C19.7437 8.42712 19.2666 8.53079 18.8274 8.73112L4.38238 15.3047C4.0823 15.4361 3.82703 15.6522 3.64777 15.9264C3.46851 16.2006 3.37305 16.5211 3.37305 16.8487C3.37305 17.1763 3.46851 17.4968 3.64777 17.771C3.82703 18.0452 4.0823 18.2612 4.38238 18.3926L18.8274 24.9797C19.2666 25.18 19.7437 25.2837 20.2264 25.2837C20.7091 25.2837 21.1862 25.18 21.6254 24.9797L36.1041 18.4095Z" stroke="#44702B" stroke-width="3.37107" stroke-linecap="round" stroke-linejoin="round"/>
<path d="M10.1133 21.0693V26.9687C10.1133 28.3098 11.1788 29.596 13.0754 30.5443C14.972 31.4926 17.5443 32.0253 20.2265 32.0253C22.9087 32.0253 25.481 31.4926 27.3776 30.5443C29.2742 29.596 30.3397 28.3098 30.3397 26.9687V21.0693" stroke="#44702B" stroke-width="3.37107" stroke-linecap="round" stroke-linejoin="round"/>
</svg>
