<svg width="41" height="41" viewBox="0 0 41 41" fill="none" xmlns="http://www.w3.org/2000/svg">
<path d="M6.74219 13.4843H10.1133M6.74219 20.2265H11.7988M6.74219 26.9686H10.1133M13.4843 6.74219V10.1133M20.2265 6.74219V11.7988M26.9686 6.74219V10.1133M8.42772 6.74219H32.0252C32.4722 6.74219 32.901 6.91977 33.2171 7.23587C33.5332 7.55197 33.7107 7.98069 33.7107 8.42772V16.8554C33.7107 17.3024 33.5332 17.7312 33.2171 18.0472C32.901 18.3633 32.4722 18.5409 32.0252 18.5409H20.2265C19.7794 18.5409 19.3507 18.7185 19.0346 19.0346C18.7185 19.3507 18.5409 19.7794 18.5409 20.2265V32.0252C18.5409 32.4722 18.3633 32.901 18.0472 33.2171C17.7312 33.5332 17.3024 33.7107 16.8554 33.7107H8.42772C7.98069 33.7107 7.55197 33.5332 7.23587 33.2171C6.91977 32.901 6.74219 32.4722 6.74219 32.0252V8.42772C6.74219 7.98069 6.91977 7.55197 7.23587 7.23587C7.55197 6.91977 7.98069 6.74219 8.42772 6.74219Z" stroke="#44702B" stroke-width="3.37107" stroke-linecap="round" stroke-linejoin="round"/>
</svg>
