<svg width="41" height="41" viewBox="0 0 41 41" fill="none" xmlns="http://www.w3.org/2000/svg">
<path d="M30.6429 13.5517L31.4233 12.7696C32.0447 12.148 32.8876 11.7987 33.7665 11.7986C34.6454 11.7984 35.4884 12.1474 36.11 12.7688C36.7316 13.3902 37.0809 14.233 37.081 15.1119C37.0812 15.9909 36.7322 16.8338 36.1108 17.4554L35.3304 18.2375M30.6429 13.5517C30.6429 13.5517 30.7407 15.2103 32.2054 16.675C33.6702 18.1398 35.3304 18.2375 35.3304 18.2375M30.6429 13.5517L23.4626 20.7321C22.9738 21.2175 22.731 21.4619 22.522 21.7299C22.2748 22.0468 22.0647 22.3873 21.8916 22.7514C21.745 23.0581 21.6371 23.3835 21.4197 24.0358L20.7236 26.1258L20.4977 26.8017M35.3304 18.2375L28.15 25.4179C27.6612 25.9067 27.4185 26.1494 27.1505 26.3584C26.8336 26.6056 26.4932 26.8158 26.1291 26.9888C25.8223 27.1355 25.497 27.2433 24.8447 27.4608L22.7546 28.1569L22.0787 28.3827M20.4977 26.8017L20.2735 27.4793C20.2213 27.6366 20.2139 27.8053 20.252 27.9665C20.2902 28.1278 20.3725 28.2753 20.4897 28.3925C20.6069 28.5096 20.7543 28.5919 20.9156 28.6301C21.0769 28.6683 21.2456 28.6608 21.4028 28.6086L22.0787 28.3827M20.4977 26.8017L22.0787 28.3827" stroke="#44702B" stroke-width="2.5283"/>
<path d="M13.4843 21.912H17.6982M13.4843 15.1698H24.4403M13.4843 28.6541H16.0126M33.4208 5.34654C31.4471 3.37109 28.2681 3.37109 21.912 3.37109H18.5409C12.1848 3.37109 9.00585 3.37109 7.03209 5.34654C5.05833 7.32199 5.05664 10.4992 5.05664 16.8554V23.5975C5.05664 29.9537 5.05664 33.1326 7.03209 35.1063C9.00753 37.0801 12.1848 37.0818 18.5409 37.0818H21.912C28.2681 37.0818 31.4471 37.0818 33.4208 35.1063C35.012 33.5169 35.3204 31.1487 35.3811 26.9686" stroke="#44702B" stroke-width="2.5283" stroke-linecap="round"/>
</svg>
