<svg width="41" height="41" viewBox="0 0 41 41" fill="none" xmlns="http://www.w3.org/2000/svg">
<path d="M20.2264 12.3601C20.2264 9.27049 17.6981 6.74219 14.6086 6.74219H3.37109V26.9686H14.6777C20.2264 26.9686 20.2264 32.5882 20.2264 32.5882M20.2264 12.3601C20.2264 9.2688 22.7547 6.74219 25.8443 6.74219H37.0818V26.9686H25.8443C20.2264 26.9686 20.2264 32.5882 20.2264 32.5882M20.2264 12.3601V32.5882M23.3868 34.4827C23.7385 33.7543 24.2864 33.1385 24.9688 32.7044C25.6513 32.2702 26.4413 32.035 27.2501 32.0252H35.3963M17.0661 34.4827C16.7208 33.7494 16.1745 33.1292 15.4906 32.6941C14.8067 32.2591 14.0133 32.0271 13.2028 32.0252H5.05663" stroke="#44702B" stroke-width="2.5283" stroke-miterlimit="10" stroke-linecap="round" stroke-linejoin="round"/>
</svg>
